<?xml version="1.0" standalone="no"?>
<!DOCTYPE svg PUBLIC "-//W3C//DTD SVG 20010904//EN"
 "http://www.w3.org/TR/2001/REC-SVG-20010904/DTD/svg10.dtd">
<svg version="1.0" xmlns="http://www.w3.org/2000/svg"
 width="64px" height="64px" viewBox="0 0 376.000000 400.000000"
 preserveAspectRatio="xMidYMid meet">

<g transform="translate(0.000000,400.000000) scale(0.100000,-0.100000)"
fill="#000000" stroke="none">
<path d="M535 3985 c-275 -60 -428 -226 -495 -535 -38 -174 -41 -301 -38
-1530 4 -1309 2 -1265 69 -1465 76 -227 219 -366 444 -432 55 -16 138 -18 989
-21 1049 -3 1035 -4 1183 67 274 132 402 436 403 959 l0 102 -104 0 -103 0 -6
-167 c-9 -239 -44 -392 -115 -495 -48 -70 -127 -142 -190 -174 l-57 -29 -970
0 -970 0 -67 33 c-78 38 -182 142 -217 217 -37 78 -59 185 -70 332 -13 171
-14 2134 -1 2318 18 259 57 373 164 473 35 33 91 73 123 88 l58 29 990 0 990
0 49 -23 c70 -32 150 -96 191 -152 72 -98 95 -223 95 -522 l0 -188 107 0 106
0 -6 208 c-4 114 -11 245 -17 292 -38 297 -140 469 -332 560 -152 72 -123 70
-1190 69 -751 0 -966 -3 -1013 -14z"/>
<path d="M725 2918 c-55 -43 -70 -129 -36 -204 36 -79 -24 -74 807 -74 l742 0
31 31 c52 52 63 138 25 211 -32 61 12 58 -800 58 l-741 0 -28 -22z"/>
<path d="M3454 2782 c-12 -4 -306 -270 -653 -591 l-631 -583 69 -77 c38 -42
106 -116 152 -165 l84 -88 630 582 c674 623 653 600 654 699 2 100 -53 187
-136 215 -47 16 -129 20 -169 8z"/>
<path d="M728 2134 c-83 -45 -91 -203 -13 -274 l27 -25 512 -3 c397 -2 521 0
551 10 98 32 123 184 45 271 l-28 32 -534 2 c-458 2 -537 0 -560 -13z"/>
<path d="M2094 1525 c-4 -11 -50 -121 -101 -244 -51 -124 -91 -226 -90 -228 3
-3 488 157 496 163 4 4 -102 123 -226 253 -63 67 -72 74 -79 56z"/>
<path d="M715 1307 c-66 -66 -67 -180 -3 -246 l30 -31 328 0 c317 0 328 1 354
21 38 30 56 71 56 129 0 62 -19 110 -55 138 -27 22 -34 22 -352 22 l-325 0
-33 -33z"/>
</g>
</svg>
