<?xml version="1.0" standalone="no"?>
<!DOCTYPE svg PUBLIC "-//W3C//DTD SVG 20010904//EN"
 "http://www.w3.org/TR/2001/REC-SVG-20010904/DTD/svg10.dtd">
<svg version="1.0" xmlns="http://www.w3.org/2000/svg"
 width="840.000000pt" height="572.000000pt" viewBox="0 0 840.000000 572.000000"
 preserveAspectRatio="xMidYMid meet">

<g transform="translate(0.000000,572.000000) scale(0.100000,-0.100000)"
fill="#000000" stroke="none">
<path d="M2742 5079 c-194 -33 -366 -200 -408 -398 -21 -100 -21 -3544 1
-3644 39 -183 197 -346 376 -386 31 -7 577 -11 1624 -11 1416 -1 1579 1 1601
15 79 51 76 178 -5 219 -14 8 -51 17 -81 21 -69 9 -118 34 -158 79 -43 49 -55
97 -50 202 6 150 46 201 168 214 41 5 82 16 103 29 41 25 104 92 143 151 l29
44 0 1595 0 1596 -28 57 c-36 74 -120 158 -194 194 l-58 29 -1505 1 c-842 1
-1528 -2 -1558 -7z m198 -1838 l0 -1589 -162 -4 c-90 -3 -171 -8 -181 -13 -16
-7 -17 64 -15 1506 l3 1514 28 47 c52 89 126 126 250 127 l77 1 0 -1589z
m1172 1075 l3 -514 31 -38 c42 -53 97 -79 164 -78 74 0 101 17 220 131 l100
96 109 -101 c60 -56 121 -106 135 -112 81 -30 183 5 224 78 22 40 22 40 22
546 l0 506 319 0 319 0 36 -40 36 -40 0 -1527 0 -1527 -22 -23 -21 -23 -1294
0 -1293 0 0 1590 0 1590 455 0 454 0 3 -514z m758 124 c0 -442 7 -415 -80
-325 -56 58 -107 85 -160 85 -58 0 -94 -21 -182 -108 l-78 -77 0 408 0 407
250 0 250 0 0 -390z m545 -3067 c-42 -109 -45 -309 -6 -417 11 -33 21 -61 21
-63 0 -2 -600 -2 -1332 -1 l-1333 3 -53 29 c-101 56 -137 135 -130 280 5 97
22 143 60 170 20 14 168 16 1401 16 1309 0 1379 -1 1372 -17z"/>
</g>
</svg>
