<?xml version="1.0" standalone="no"?>
<!DOCTYPE svg PUBLIC "-//W3C//DTD SVG 20010904//EN"
 "http://www.w3.org/TR/2001/REC-SVG-20010904/DTD/svg10.dtd">
<svg version="1.0" xmlns="http://www.w3.org/2000/svg"
 width="94px" height="74px" viewBox="0 0 900.000000 620.000000"
 preserveAspectRatio="xMidYMid meet">

<g transform="translate(0.000000,620.000000) scale(0.100000,-0.100000)"
fill="#000000" stroke="none">
<path d="M1715 6190 c-260 -35 -456 -162 -554 -360 -95 -193 -134 -477 -97
-711 33 -211 104 -433 234 -739 74 -172 313 -656 449 -910 230 -427 270 -503
340 -654 180 -388 303 -756 361 -1078 l19 -107 -506 -3 c-490 -4 -508 -5 -581
-27 -119 -36 -201 -85 -275 -162 -111 -118 -163 -250 -172 -439 -12 -253 81
-490 256 -651 86 -80 157 -123 268 -163 l88 -31 2045 0 c1943 0 2049 1 2130
18 216 47 400 155 526 308 238 291 310 740 208 1299 -22 121 -88 393 -101 413
-2 4 -32 -16 -65 -45 -33 -29 -74 -65 -91 -79 l-30 -25 27 -110 c52 -213 68
-337 73 -552 4 -127 1 -233 -6 -285 -49 -340 -192 -569 -426 -678 -159 -74
-44 -69 -1853 -72 -892 -1 -1622 0 -1622 2 0 2 27 32 60 68 132 141 237 381
274 628 17 113 20 377 6 515 -39 396 -201 911 -444 1415 -40 83 -139 274 -221
425 -607 1125 -800 1640 -755 2021 12 111 47 243 85 327 51 112 173 206 310
237 79 19 258 21 330 5 116 -26 220 -108 274 -215 l31 -60 -38 -2 c-20 -2
-179 -4 -352 -5 -286 -3 -319 -5 -344 -21 -39 -26 -58 -78 -64 -178 -16 -277
144 -501 396 -555 56 -11 309 -14 1535 -14 1165 0 1468 -3 1471 -12 2 -7 21
-69 41 -138 82 -282 230 -630 455 -1075 145 -286 254 -492 270 -508 6 -7 180
108 180 119 0 3 -29 58 -64 122 -289 531 -519 1046 -626 1399 l-28 92 427 3
426 3 72 43 c153 90 263 242 299 412 21 97 14 242 -15 325 -61 173 -232 334
-435 410 -169 63 -6 59 -2171 61 -1083 1 -1997 -2 -2030 -6z m4030 -203 c169
-49 309 -152 370 -273 29 -56 30 -65 30 -184 0 -116 -2 -129 -28 -184 -36 -78
-87 -138 -150 -181 l-52 -35 -1748 0 -1748 0 21 30 c40 56 88 175 106 260 38
189 -13 398 -133 548 l-35 43 1654 -3 c1535 -3 1657 -5 1713 -21z m-3417 -495
c8 -56 -55 -206 -114 -272 -102 -112 -282 -114 -384 -4 -58 63 -82 123 -88
216 l-4 77 33 3 c19 2 151 3 294 3 l260 -1 3 -22z m-629 -4084 c79 -37 130
-154 117 -266 -8 -68 -32 -124 -85 -199 -56 -77 -53 -126 9 -158 24 -12 82
-15 335 -15 216 0 305 -3 305 -11 0 -23 -72 -147 -119 -205 -120 -148 -294
-209 -574 -202 -131 3 -135 4 -209 40 -128 64 -230 190 -290 358 -25 69 -36
270 -19 351 17 79 61 167 110 217 102 104 298 146 420 90z m745 24 l49 -2 -6
-152 c-5 -134 -13 -209 -32 -295 l-5 -23 -225 0 c-124 0 -225 2 -225 4 0 2 7
23 15 46 41 117 37 254 -10 358 -14 30 -23 57 -21 61 4 6 357 9 460 3z"/>
<path d="M2180 4399 c-19 -4 -45 -19 -57 -34 -32 -36 -29 -78 6 -117 l29 -33
1194 -3 c656 -1 1207 0 1224 3 83 15 114 108 53 159 -17 14 -43 27 -57 27
-115 6 -2365 3 -2392 -2z"/>
<path d="M7797 4185 c-219 -37 -410 -133 -535 -270 -58 -63 -58 -49 0 39 21
32 37 61 35 63 -7 7 -151 -49 -248 -97 -53 -26 -130 -69 -170 -95 -93 -62
-239 -207 -304 -303 -27 -40 -51 -69 -53 -64 -4 13 44 138 69 181 24 41 18 39
-91 -28 -130 -81 -277 -198 -391 -311 -119 -119 -184 -200 -246 -309 -35 -62
-43 -71 -43 -48 0 34 42 139 76 190 14 22 23 41 21 43 -11 11 -170 -122 -263
-219 -143 -147 -211 -254 -327 -507 l-16 -35 0 55 c0 30 8 78 18 107 l18 52
-30 -21 c-52 -37 -147 -162 -192 -253 -25 -49 -55 -130 -67 -180 -13 -49 -24
-92 -25 -94 -8 -12 -15 14 -22 76 l-7 68 -37 -75 c-42 -88 -75 -207 -85 -313
l-7 -76 -176 -188 c-395 -420 -531 -613 -435 -613 35 0 83 43 227 200 74 80
219 231 324 336 l190 192 125 5 c125 5 198 19 300 59 57 22 161 87 167 104 2
5 -30 9 -79 8 -46 -1 -96 2 -113 5 -25 6 -14 10 61 24 211 39 359 97 514 202
103 70 178 132 145 120 -49 -17 -155 -35 -214 -35 -35 0 -62 2 -60 5 3 2 45
16 95 30 172 50 390 172 582 326 91 73 256 229 249 235 -2 2 -28 0 -57 -6 -64
-12 -178 -13 -164 -2 5 5 55 23 111 41 186 60 368 181 585 391 67 65 121 121
118 124 -3 2 -32 -2 -65 -10 -33 -7 -89 -14 -125 -13 l-65 0 80 28 c144 50
267 127 396 248 62 59 169 188 169 205 0 3 -21 -2 -47 -12 -27 -9 -70 -20 -98
-24 -57 -8 -52 -2 36 44 125 65 299 219 382 339 l30 44 -47 -6 c-40 -6 -119
-30 -231 -72 -11 -4 13 16 53 44 39 29 72 54 72 57 0 6 -26 4 -113 -11z"/>
<path d="M2464 3706 c-19 -19 -34 -41 -34 -49 0 -33 21 -68 52 -87 33 -20 51
-20 1234 -20 l1201 0 33 23 c42 28 56 67 40 108 -26 62 47 59 -1281 59 l-1211
0 -34 -34z"/>
<path d="M2824 3070 c-47 -19 -68 -85 -43 -132 26 -49 -6 -48 1268 -48 736 0
1199 4 1215 10 58 22 83 80 56 131 -28 51 23 49 -1272 48 -662 0 -1213 -4
-1224 -9z"/>
<path d="M3040 2403 c-45 -31 -59 -68 -40 -112 26 -63 -10 -61 954 -61 l875 0
12 23 c7 12 33 49 58 82 26 33 50 66 55 73 6 9 -185 12 -941 12 -875 0 -950
-1 -973 -17z"/>
<path d="M3275 1751 c-30 -13 -54 -44 -61 -79 -6 -27 -1 -37 29 -67 l35 -35
607 2 607 3 86 93 85 92 -684 -1 c-376 0 -693 -4 -704 -8z"/>
<path d="M3208 1084 c-53 -28 -64 -94 -24 -141 l24 -28 378 -3 c272 -2 386 1
406 9 81 33 75 138 -9 170 -13 5 -184 9 -386 9 -300 -1 -367 -3 -389 -16z"/>
</g>
</svg>
