<?xml version="1.0" standalone="no"?>
<!DOCTYPE svg PUBLIC "-//W3C//DTD SVG 20010904//EN"
 "http://www.w3.org/TR/2001/REC-SVG-20010904/DTD/svg10.dtd">
<svg version="1.0" xmlns="http://www.w3.org/2000/svg"
 width="900.000000pt" height="900.000000pt" viewBox="0 0 900.000000 900.000000"
 preserveAspectRatio="xMidYMid meet">

<g transform="translate(0.000000,900.000000) scale(0.100000,-0.100000)"
fill="#000000" stroke="none">
<path d="M6800 7957 c-3 -3 -333 -7 -735 -11 -1005 -9 -1378 -16 -1459 -27
-88 -12 -203 -51 -282 -93 -46 -25 -196 -71 -619 -186 -569 -155 -949 -276
-1093 -348 -40 -20 -103 -59 -140 -85 -52 -38 -439 -257 -594 -338 -159 -81
-300 -180 -364 -252 -22 -24 -174 -145 -339 -269 -203 -152 -323 -249 -370
-300 -239 -257 -301 -648 -151 -963 18 -39 115 -192 216 -340 176 -259 1004
-1483 1275 -1883 71 -105 310 -458 530 -784 427 -631 466 -682 604 -772 140
-92 270 -134 441 -143 176 -9 327 24 473 105 37 20 225 153 417 295 l349 258
288 54 c732 139 794 149 802 136 9 -14 58 -17 576 -31 557 -16 675 -14 770 10
197 50 387 183 511 355 59 82 124 222 152 324 23 88 26 113 26 306 1 245 -15
1723 -19 1769 -2 17 -6 373 -10 791 -4 418 -9 763 -11 766 -2 4 -4 175 -5 380
-1 420 -8 513 -45 632 -96 302 -318 522 -621 613 -82 25 -103 27 -328 31 -133
2 -243 2 -245 0z m467 -378 c192 -46 357 -217 393 -406 5 -29 14 -420 19 -870
6 -450 13 -955 16 -1123 19 -1087 27 -2289 16 -2341 -41 -195 -202 -360 -392
-403 -69 -15 -337 -21 -1369 -31 -305 -3 -697 -8 -870 -11 -260 -5 -328 -3
-388 10 -216 45 -387 226 -416 441 -3 22 -8 247 -11 500 -3 253 -7 586 -10
740 -3 154 -7 548 -10 875 -3 327 -7 665 -10 750 -2 85 -7 434 -11 775 -6 550
-5 627 10 682 52 205 215 356 422 392 34 6 399 13 869 17 446 3 812 8 813 10
2 1 201 3 442 4 302 0 453 -3 487 -11z m-3392 -346 c-15 -41 -23 -178 -19
-357 2 -105 9 -594 14 -1086 6 -492 12 -1059 15 -1260 12 -833 14 -1094 10
-1085 -2 6 -58 325 -125 710 -66 385 -136 788 -155 895 -300 1713 -298 1696
-252 1828 65 187 208 309 415 352 110 23 105 23 97 3z m-840 -190 c-45 -109
-70 -262 -62 -382 4 -47 22 -174 41 -281 20 -107 78 -445 131 -750 53 -305
195 -1124 316 -1819 121 -695 218 -1265 216 -1267 -1 -2 -79 245 -171 549 -93
304 -209 683 -258 842 -108 353 -238 776 -364 1190 -53 171 -122 396 -154 500
-244 795 -233 754 -238 856 -3 72 0 111 13 155 21 72 66 158 106 203 50 55
359 218 418 220 9 1 11 -5 6 -16z m-909 -561 c0 -53 6 -122 13 -152 6 -30 93
-320 192 -645 100 -324 207 -675 239 -780 32 -104 97 -316 144 -470 475 -1552
624 -2040 622 -2042 -1 -1 -60 118 -131 265 -71 147 -215 445 -321 662 -105
217 -299 618 -432 890 -132 272 -317 655 -412 850 -435 894 -405 821 -398 969
9 181 47 249 207 370 138 105 250 181 265 181 7 0 11 -36 12 -98z m-842 -591
c3 -38 15 -100 27 -137 11 -38 126 -285 254 -549 228 -469 397 -818 1067
-2200 182 -374 334 -688 339 -697 6 -10 8 -18 5 -18 -2 0 -253 368 -557 818
-305 449 -603 890 -664 979 -60 90 -168 249 -240 355 -71 105 -217 320 -324
477 -107 157 -206 313 -220 346 -18 45 -26 84 -29 154 -10 206 57 342 235 476
47 36 89 65 93 65 4 0 10 -31 14 -69z"/>
</g>
</svg>
